<svg xmlns="http://www.w3.org/2000/svg" width="200" height="200" viewBox="0 0 200 200"><rect width="100%" height="100%" fill="#DDDDDD"/><path fill="#999999" d="M44.695 93.475h1.78v10.84h-1.04q-.24 0-.4-.08t-.31-.26l-5.67-7.23q.05.49.05.91v6.66h-1.78v-10.84h1.06q.13 0 .22.01t.17.04q.07.04.13.1.07.06.15.17l5.69 7.26-.04-.52q-.01-.26-.01-.47zm7.3 3.03q.86 0 1.56.27.7.28 1.2.79t.77 1.25q.27.73.27 1.64t-.27 1.65q-.27.73-.77 1.25t-1.2.8q-.7.27-1.56.27t-1.57-.27q-.7-.28-1.2-.8t-.77-1.25q-.28-.74-.28-1.65t.28-1.64q.27-.74.77-1.25t1.2-.79q.71-.27 1.57-.27m0 6.5q.96 0 1.42-.65.46-.64.46-1.89 0-1.24-.46-1.9-.46-.65-1.42-.65-.97 0-1.44.66t-.47 1.89q0 1.24.47 1.89t1.44.65m15.43-8.51-.5.95q-.09.16-.19.23-.11.07-.26.07t-.34-.12q-.18-.11-.44-.26-.25-.14-.59-.26-.34-.11-.81-.11-.42 0-.73.1-.32.1-.53.28t-.32.43q-.1.25-.1.55 0 .39.21.64.21.26.57.44.35.17.8.32.45.14.92.3t.92.38q.45.21.8.54.36.32.57.8.22.47.22 1.14 0 .74-.26 1.38-.25.64-.73 1.12-.48.47-1.18.75-.7.27-1.6.27-.52 0-1.02-.1t-.96-.29q-.47-.19-.87-.45-.41-.26-.72-.58l.59-.97q.08-.11.2-.18t.25-.07q.19 0 .41.15.21.16.52.35.3.18.7.34.4.15.96.15.86 0 1.34-.41.47-.41.47-1.17 0-.43-.22-.7-.21-.27-.56-.45-.36-.19-.8-.32-.45-.12-.92-.27-.46-.15-.92-.36-.44-.21-.8-.55-.35-.34-.56-.84-.22-.51-.22-1.25 0-.6.24-1.16.23-.56.69-.99.45-.44 1.11-.7.65-.26 1.51-.26.96 0 1.77.3.81.29 1.38.84m3.51 4.38v3.45q.31.38.69.54.37.15.8.15.42 0 .76-.15.34-.16.57-.48.24-.33.37-.82.12-.49.12-1.16t-.1-1.14q-.11-.47-.31-.76-.21-.29-.5-.43-.28-.14-.65-.14-.58 0-.99.25-.4.24-.76.69m-.25-1.92.15.72q.47-.54 1.07-.87.61-.33 1.41-.33.63 0 1.16.27.52.26.9.76.37.5.58 1.23t.21 1.67q0 .87-.24 1.6-.23.74-.66 1.28t-1.04.84-1.37.3q-.64 0-1.1-.2-.46-.19-.82-.55v3.15h-1.85v-10.2h1.13q.36 0 .47.33m8.55.13.12.87q.36-.69.85-1.08.49-.4 1.17-.4.53 0 .85.24l-.12 1.38q-.03.14-.1.19-.08.06-.2.06-.11 0-.33-.04-.22-.03-.43-.03-.31 0-.55.08-.24.09-.43.26t-.34.41q-.14.24-.27.55v4.74h-1.85v-7.69h1.09q.28 0 .39.1t.15.36m4.02-.46h1.86v7.69h-1.86zm2.12-2.25q0 .24-.1.45t-.26.37-.38.25-.46.09-.46-.09q-.21-.09-.37-.25t-.25-.37-.09-.45q0-.25.09-.46.09-.22.25-.38.16-.15.37-.25.22-.09.46-.09t.46.09q.22.1.38.25.16.16.26.38.1.21.1.46m4.2 10.06q-1.01 0-1.54-.57-.54-.56-.54-1.56v-4.3h-.79q-.15 0-.25-.09-.11-.1-.11-.3v-.73l1.24-.2.39-2.1q.04-.15.14-.24.11-.08.27-.08h.96v2.42h2.06v1.32h-2.06v4.17q0 .36.18.57.17.2.48.2.17 0 .29-.04t.2-.09q.09-.04.16-.09.06-.04.13-.04.08 0 .14.04.05.05.11.13l.55.9q-.4.34-.93.51-.52.17-1.08.17m4.47-4.85h3.5q0-.36-.1-.68t-.31-.56q-.2-.24-.51-.38t-.72-.14q-.81 0-1.27.46t-.59 1.3m4.73 1.12h-4.76q.04.59.21 1.02.16.43.43.71t.64.42.82.14.78-.11q.33-.1.57-.23.24-.12.43-.23.18-.1.35-.1.24 0 .35.17l.53.67q-.31.36-.69.61-.38.24-.8.39-.41.14-.84.2-.44.06-.84.06-.8 0-1.49-.26-.69-.27-1.2-.79t-.81-1.29q-.29-.77-.29-1.78 0-.79.26-1.48.25-.7.73-1.21.47-.51 1.16-.81t1.55-.3q.73 0 1.34.23.62.23 1.06.68.44.44.69 1.09t.25 1.48q0 .42-.09.57t-.34.15m7.78-1.78h1.5q.56 0 .97-.14t.69-.4q.27-.26.41-.63.13-.37.13-.83 0-.43-.13-.78-.14-.36-.41-.61-.27-.24-.68-.37-.41-.14-.98-.14h-1.5zm-2.02-5.45h3.52q1.09 0 1.89.25.79.26 1.31.71.52.46.77 1.1t.25 1.39q0 .79-.26 1.45-.27.65-.79 1.13-.53.47-1.32.73t-1.85.26h-1.5v3.82h-2.02zm10.63 3.61.11.87q.36-.69.85-1.08.5-.4 1.18-.4.53 0 .85.24l-.12 1.38q-.04.14-.11.19-.07.06-.19.06-.11 0-.33-.04-.23-.03-.44-.03-.3 0-.54.08-.24.09-.43.26-.2.17-.34.41-.15.24-.28.55v4.74h-1.85v-7.69h1.09q.28 0 .4.1.11.1.15.36m7.36-.58q.86 0 1.56.27.7.28 1.2.79t.77 1.25q.27.73.27 1.64t-.27 1.65q-.27.73-.77 1.25t-1.2.8q-.7.27-1.56.27t-1.56-.27q-.71-.28-1.21-.8t-.77-1.25q-.27-.74-.27-1.65t.27-1.64q.27-.74.77-1.25t1.21-.79q.7-.27 1.56-.27m0 6.5q.96 0 1.42-.65.46-.64.46-1.89 0-1.24-.46-1.9-.46-.65-1.42-.65-.97 0-1.44.66t-.47 1.89q0 1.24.47 1.89t1.44.65m10.69-6.38h1.46l-3.05 7.69h-1.68l-3.05-7.69h1.53q.21 0 .35.09.13.1.18.25l1.48 4.11q.12.36.21.71.09.34.16.69.08-.35.17-.69.09-.35.22-.71l1.51-4.11q.05-.15.19-.25.13-.09.32-.09m2.51 0h1.86v7.69h-1.86zm2.11-2.25q0 .24-.1.45-.09.21-.26.37-.16.16-.38.25-.21.09-.46.09-.24 0-.45-.09-.22-.09-.38-.25-.15-.16-.25-.37-.09-.21-.09-.45 0-.25.09-.46.1-.22.25-.38.16-.15.38-.25.21-.09.45-.09.25 0 .46.09.22.1.38.25.17.16.26.38.1.21.1.46m6.47 7.66v-3.45q-.32-.38-.69-.54t-.8-.16q-.42 0-.76.16-.33.16-.57.48t-.37.81-.13 1.16.11 1.14.31.76q.2.3.5.43.29.13.65.13.58 0 .98-.24.41-.24.77-.68m0-8.86h1.85v11.14h-1.13q-.37 0-.47-.34l-.16-.74q-.46.53-1.07.86-.6.33-1.4.33-.63 0-1.16-.26-.52-.26-.9-.76t-.59-1.24q-.2-.73-.2-1.67 0-.86.23-1.6.23-.73.67-1.27.43-.54 1.04-.84.61-.31 1.37-.31.64 0 1.1.21.46.2.82.54zm5.14 6.41h3.5q0-.36-.11-.68-.1-.32-.3-.56t-.51-.38-.73-.14q-.8 0-1.26.46t-.59 1.3m4.73 1.12h-4.77q.05.59.21 1.02.17.43.44.71t.64.42.82.14.78-.11q.32-.1.57-.23.24-.12.42-.23.19-.1.36-.1.23 0 .35.17l.53.67q-.31.36-.69.61-.38.24-.8.39-.42.14-.85.2t-.83.06q-.81 0-1.5-.26-.69-.27-1.2-.79t-.8-1.29-.29-1.78q0-.79.25-1.48.26-.7.73-1.21.48-.51 1.17-.81.68-.3 1.55-.3.72 0 1.34.23.61.23 1.06.68.44.44.69 1.09t.25 1.48q0 .42-.09.57t-.34.15m6.65 1.33v-3.45q-.32-.38-.69-.54t-.8-.16q-.42 0-.75.16-.34.16-.58.48t-.37.81-.13 1.16.11 1.14.31.76q.21.3.5.43t.65.13q.58 0 .98-.24.41-.24.77-.68m0-8.86h1.85v11.14h-1.13q-.37 0-.47-.34l-.15-.74q-.47.53-1.07.86-.61.33-1.41.33-.63 0-1.15-.26-.53-.26-.91-.76t-.58-1.24q-.21-.73-.21-1.67 0-.86.23-1.6.24-.73.67-1.27.44-.54 1.04-.84.61-.31 1.37-.31.64 0 1.1.21.46.2.82.54z"/></svg>